<mxfile host="app.diagrams.net" modified="2021-08-18T11:29:42.522Z" agent="5.0 (Windows NT 10.0; Win64; x64) AppleWebKit/537.36 (KHTML, like Gecko) Chrome/92.0.4515.131 Safari/537.36" etag="LsIq_p-nK10NhbGDV4Nn" version="14.9.7" type="github">
  <diagram id="o_051fvFg_q-EQ408NF0" name="Page-1">
    <mxGraphModel dx="1422" dy="882" grid="1" gridSize="10" guides="1" tooltips="1" connect="1" arrows="1" fold="1" page="1" pageScale="1" pageWidth="827" pageHeight="1169" math="0" shadow="0">
      <root>
        <mxCell id="0" />
        <mxCell id="1" parent="0" />
        <mxCell id="u97FwL2xiANHR-dU6TU--2" value="Proposal Status" style="swimlane;fillColor=#f5f5f5;strokeColor=#666666;fontColor=#333333;" vertex="1" parent="1">
          <mxGeometry x="80" y="40" width="280" height="740" as="geometry" />
        </mxCell>
        <mxCell id="u97FwL2xiANHR-dU6TU--4" value="Approved&amp;amp;Executing" style="rounded=1;whiteSpace=wrap;html=1;fillColor=#f8cecc;strokeColor=#b85450;" vertex="1" parent="u97FwL2xiANHR-dU6TU--2">
          <mxGeometry x="40" y="40" width="200" height="40" as="geometry" />
        </mxCell>
        <mxCell id="u97FwL2xiANHR-dU6TU--8" value="Approved&amp;amp;Non-Executing" style="rounded=1;whiteSpace=wrap;html=1;fillColor=#f8cecc;strokeColor=#b85450;" vertex="1" parent="u97FwL2xiANHR-dU6TU--2">
          <mxGeometry x="40" y="270" width="200" height="40" as="geometry" />
        </mxCell>
        <mxCell id="u97FwL2xiANHR-dU6TU--10" value="Kroger Review" style="rounded=1;whiteSpace=wrap;html=1;fillColor=#f8cecc;strokeColor=#b85450;" vertex="1" parent="u97FwL2xiANHR-dU6TU--2">
          <mxGeometry x="40" y="500" width="200" height="40" as="geometry" />
        </mxCell>
        <mxCell id="u97FwL2xiANHR-dU6TU--11" value="Vendor Review" style="rounded=1;whiteSpace=wrap;html=1;fillColor=#f8cecc;strokeColor=#b85450;" vertex="1" parent="u97FwL2xiANHR-dU6TU--2">
          <mxGeometry x="40" y="580" width="200" height="40" as="geometry" />
        </mxCell>
        <mxCell id="u97FwL2xiANHR-dU6TU--12" value="Draft" style="rounded=1;whiteSpace=wrap;html=1;fillColor=#f8cecc;strokeColor=#b85450;" vertex="1" parent="u97FwL2xiANHR-dU6TU--2">
          <mxGeometry x="40" y="660" width="200" height="40" as="geometry" />
        </mxCell>
        <mxCell id="u97FwL2xiANHR-dU6TU--37" value="" style="rounded=1;whiteSpace=wrap;html=1;fillColor=#f8cecc;strokeColor=#b85450;" vertex="1" parent="u97FwL2xiANHR-dU6TU--2">
          <mxGeometry x="30" y="350" width="220" height="110" as="geometry" />
        </mxCell>
        <mxCell id="u97FwL2xiANHR-dU6TU--9" value="Approved&amp;amp;Non-Executing with Vendor Review In Progress" style="rounded=1;whiteSpace=wrap;html=1;fillColor=#f5f5f5;strokeColor=#666666;fontColor=#333333;" vertex="1" parent="u97FwL2xiANHR-dU6TU--2">
          <mxGeometry x="40" y="360" width="200" height="40" as="geometry" />
        </mxCell>
        <mxCell id="u97FwL2xiANHR-dU6TU--7" value="Approved&amp;amp;Non-Executing with Kroger Review In Progress" style="rounded=1;whiteSpace=wrap;html=1;fillColor=#f5f5f5;strokeColor=#666666;fontColor=#333333;" vertex="1" parent="u97FwL2xiANHR-dU6TU--2">
          <mxGeometry x="40" y="410" width="200" height="40" as="geometry" />
        </mxCell>
        <mxCell id="u97FwL2xiANHR-dU6TU--38" value="" style="rounded=1;whiteSpace=wrap;html=1;fillColor=#f8cecc;strokeColor=#b85450;" vertex="1" parent="u97FwL2xiANHR-dU6TU--2">
          <mxGeometry x="30" y="120" width="220" height="110" as="geometry" />
        </mxCell>
        <mxCell id="u97FwL2xiANHR-dU6TU--5" value="Approved&amp;amp;Executing with Vendor Review In Progress" style="rounded=1;whiteSpace=wrap;html=1;fillColor=#f5f5f5;strokeColor=#666666;fontColor=#333333;" vertex="1" parent="u97FwL2xiANHR-dU6TU--2">
          <mxGeometry x="40" y="130" width="200" height="40" as="geometry" />
        </mxCell>
        <mxCell id="u97FwL2xiANHR-dU6TU--6" value="Approved&amp;amp;Executing with Kroger Review In Progress" style="rounded=1;whiteSpace=wrap;html=1;fillColor=#f5f5f5;strokeColor=#666666;fontColor=#333333;" vertex="1" parent="u97FwL2xiANHR-dU6TU--2">
          <mxGeometry x="40" y="180" width="200" height="40" as="geometry" />
        </mxCell>
        <mxCell id="u97FwL2xiANHR-dU6TU--3" value="Action Processor" style="swimlane;fillColor=#f5f5f5;strokeColor=#666666;fontColor=#333333;" vertex="1" parent="1">
          <mxGeometry x="480" y="40" width="280" height="740" as="geometry" />
        </mxCell>
        <mxCell id="u97FwL2xiANHR-dU6TU--14" value="InactiveItemLocationActionProcessor" style="rounded=1;whiteSpace=wrap;html=1;fillColor=#d5e8d4;strokeColor=#82b366;" vertex="1" parent="u97FwL2xiANHR-dU6TU--3">
          <mxGeometry x="40" y="40" width="200" height="40" as="geometry" />
        </mxCell>
        <mxCell id="u97FwL2xiANHR-dU6TU--15" value="UpdatePriceGroupActionProcessor" style="rounded=1;whiteSpace=wrap;html=1;fillColor=#d5e8d4;strokeColor=#82b366;" vertex="1" parent="u97FwL2xiANHR-dU6TU--3">
          <mxGeometry x="40" y="200" width="200" height="40" as="geometry" />
        </mxCell>
        <mxCell id="u97FwL2xiANHR-dU6TU--16" value="UpdatePackQuantityActionProcessor" style="rounded=1;whiteSpace=wrap;html=1;fillColor=#d5e8d4;strokeColor=#82b366;" vertex="1" parent="u97FwL2xiANHR-dU6TU--3">
          <mxGeometry x="40" y="360" width="200" height="40" as="geometry" />
        </mxCell>
        <mxCell id="u97FwL2xiANHR-dU6TU--17" value="NewAddLocationActionProcessor" style="rounded=1;whiteSpace=wrap;html=1;fillColor=#d5e8d4;strokeColor=#82b366;" vertex="1" parent="u97FwL2xiANHR-dU6TU--3">
          <mxGeometry x="40" y="520" width="200" height="40" as="geometry" />
        </mxCell>
        <mxCell id="u97FwL2xiANHR-dU6TU--18" value="NewAddPriceGroupActionProcessor" style="rounded=1;whiteSpace=wrap;html=1;fillColor=#d5e8d4;strokeColor=#82b366;" vertex="1" parent="u97FwL2xiANHR-dU6TU--3">
          <mxGeometry x="40" y="680" width="200" height="40" as="geometry" />
        </mxCell>
        <mxCell id="u97FwL2xiANHR-dU6TU--19" style="rounded=0;orthogonalLoop=1;jettySize=auto;html=1;entryX=0;entryY=0.5;entryDx=0;entryDy=0;strokeWidth=2;fillColor=#d5e8d4;strokeColor=#82b366;" edge="1" parent="1" target="u97FwL2xiANHR-dU6TU--18">
          <mxGeometry relative="1" as="geometry">
            <mxPoint x="320" y="100" as="sourcePoint" />
          </mxGeometry>
        </mxCell>
        <mxCell id="u97FwL2xiANHR-dU6TU--20" style="edgeStyle=none;rounded=0;orthogonalLoop=1;jettySize=auto;html=1;entryX=0;entryY=0.5;entryDx=0;entryDy=0;strokeWidth=2;exitX=1;exitY=0.5;exitDx=0;exitDy=0;fillColor=#d5e8d4;strokeColor=#82b366;" edge="1" parent="1" source="u97FwL2xiANHR-dU6TU--4" target="u97FwL2xiANHR-dU6TU--17">
          <mxGeometry relative="1" as="geometry" />
        </mxCell>
        <mxCell id="u97FwL2xiANHR-dU6TU--26" style="edgeStyle=none;rounded=0;orthogonalLoop=1;jettySize=auto;html=1;entryX=0;entryY=0.5;entryDx=0;entryDy=0;strokeWidth=2;exitX=1;exitY=0.5;exitDx=0;exitDy=0;fillColor=#e1d5e7;strokeColor=#9673a6;" edge="1" parent="1" source="u97FwL2xiANHR-dU6TU--10" target="u97FwL2xiANHR-dU6TU--16">
          <mxGeometry relative="1" as="geometry" />
        </mxCell>
        <mxCell id="u97FwL2xiANHR-dU6TU--28" style="edgeStyle=none;rounded=0;orthogonalLoop=1;jettySize=auto;html=1;entryX=0;entryY=0.5;entryDx=0;entryDy=0;strokeWidth=2;exitX=1;exitY=0.5;exitDx=0;exitDy=0;fillColor=#f5f5f5;strokeColor=#666666;" edge="1" parent="1" source="u97FwL2xiANHR-dU6TU--12" target="u97FwL2xiANHR-dU6TU--17">
          <mxGeometry relative="1" as="geometry" />
        </mxCell>
        <mxCell id="u97FwL2xiANHR-dU6TU--29" style="edgeStyle=none;rounded=0;orthogonalLoop=1;jettySize=auto;html=1;entryX=0;entryY=0.5;entryDx=0;entryDy=0;strokeWidth=2;exitX=1;exitY=0.5;exitDx=0;exitDy=0;fillColor=#f5f5f5;strokeColor=#666666;" edge="1" parent="1" source="u97FwL2xiANHR-dU6TU--12" target="u97FwL2xiANHR-dU6TU--14">
          <mxGeometry relative="1" as="geometry">
            <mxPoint x="320" y="740" as="sourcePoint" />
          </mxGeometry>
        </mxCell>
        <mxCell id="u97FwL2xiANHR-dU6TU--30" style="edgeStyle=none;rounded=0;orthogonalLoop=1;jettySize=auto;html=1;entryX=0;entryY=0.5;entryDx=0;entryDy=0;strokeWidth=2;exitX=1;exitY=0.5;exitDx=0;exitDy=0;fillColor=#fff2cc;strokeColor=#d6b656;" edge="1" parent="1" source="u97FwL2xiANHR-dU6TU--8" target="u97FwL2xiANHR-dU6TU--17">
          <mxGeometry relative="1" as="geometry" />
        </mxCell>
        <mxCell id="u97FwL2xiANHR-dU6TU--31" style="edgeStyle=none;rounded=0;orthogonalLoop=1;jettySize=auto;html=1;entryX=0;entryY=0.5;entryDx=0;entryDy=0;strokeWidth=2;exitX=1;exitY=0.5;exitDx=0;exitDy=0;fillColor=#fff2cc;strokeColor=#d6b656;" edge="1" parent="1" source="u97FwL2xiANHR-dU6TU--8" target="u97FwL2xiANHR-dU6TU--14">
          <mxGeometry relative="1" as="geometry" />
        </mxCell>
        <mxCell id="u97FwL2xiANHR-dU6TU--32" style="edgeStyle=none;rounded=0;orthogonalLoop=1;jettySize=auto;html=1;strokeWidth=2;exitX=1;exitY=0.5;exitDx=0;exitDy=0;fillColor=#fa6800;strokeColor=#C73500;" edge="1" parent="1" source="u97FwL2xiANHR-dU6TU--37">
          <mxGeometry relative="1" as="geometry">
            <mxPoint x="520" y="580" as="targetPoint" />
          </mxGeometry>
        </mxCell>
        <mxCell id="u97FwL2xiANHR-dU6TU--33" style="edgeStyle=none;rounded=0;orthogonalLoop=1;jettySize=auto;html=1;entryX=0;entryY=0.5;entryDx=0;entryDy=0;strokeWidth=2;exitX=1;exitY=0.5;exitDx=0;exitDy=0;fillColor=#fa6800;strokeColor=#C73500;" edge="1" parent="1" source="u97FwL2xiANHR-dU6TU--37" target="u97FwL2xiANHR-dU6TU--14">
          <mxGeometry relative="1" as="geometry" />
        </mxCell>
        <mxCell id="u97FwL2xiANHR-dU6TU--36" style="edgeStyle=none;rounded=0;orthogonalLoop=1;jettySize=auto;html=1;strokeWidth=2;fillColor=#e1d5e7;strokeColor=#9673a6;exitX=1;exitY=0.5;exitDx=0;exitDy=0;" edge="1" parent="1" source="u97FwL2xiANHR-dU6TU--10">
          <mxGeometry relative="1" as="geometry">
            <mxPoint x="520" y="580" as="targetPoint" />
          </mxGeometry>
        </mxCell>
        <mxCell id="u97FwL2xiANHR-dU6TU--39" style="edgeStyle=none;rounded=0;orthogonalLoop=1;jettySize=auto;html=1;entryX=0;entryY=0.5;entryDx=0;entryDy=0;strokeWidth=2;exitX=1;exitY=0.5;exitDx=0;exitDy=0;fillColor=#dae8fc;strokeColor=#6c8ebf;" edge="1" parent="1" source="u97FwL2xiANHR-dU6TU--38" target="u97FwL2xiANHR-dU6TU--17">
          <mxGeometry relative="1" as="geometry" />
        </mxCell>
        <mxCell id="u97FwL2xiANHR-dU6TU--41" style="edgeStyle=none;rounded=0;orthogonalLoop=1;jettySize=auto;html=1;entryX=0;entryY=0.5;entryDx=0;entryDy=0;strokeWidth=2;exitX=1;exitY=0.5;exitDx=0;exitDy=0;fillColor=#fff2cc;strokeColor=#d6b656;" edge="1" parent="1" source="u97FwL2xiANHR-dU6TU--8" target="u97FwL2xiANHR-dU6TU--15">
          <mxGeometry relative="1" as="geometry" />
        </mxCell>
        <mxCell id="u97FwL2xiANHR-dU6TU--42" style="edgeStyle=none;rounded=0;orthogonalLoop=1;jettySize=auto;html=1;entryX=0;entryY=0.5;entryDx=0;entryDy=0;strokeWidth=2;exitX=1;exitY=0.5;exitDx=0;exitDy=0;fillColor=#e1d5e7;strokeColor=#9673a6;" edge="1" parent="1" source="u97FwL2xiANHR-dU6TU--10" target="u97FwL2xiANHR-dU6TU--15">
          <mxGeometry relative="1" as="geometry" />
        </mxCell>
        <mxCell id="u97FwL2xiANHR-dU6TU--43" style="edgeStyle=none;rounded=0;orthogonalLoop=1;jettySize=auto;html=1;entryX=0;entryY=0.5;entryDx=0;entryDy=0;strokeWidth=2;exitX=1;exitY=0.5;exitDx=0;exitDy=0;fillColor=#f0a30a;strokeColor=#BD7000;" edge="1" parent="1" source="u97FwL2xiANHR-dU6TU--11" target="u97FwL2xiANHR-dU6TU--15">
          <mxGeometry relative="1" as="geometry" />
        </mxCell>
        <mxCell id="u97FwL2xiANHR-dU6TU--44" style="edgeStyle=none;rounded=0;orthogonalLoop=1;jettySize=auto;html=1;entryX=0;entryY=0.5;entryDx=0;entryDy=0;strokeWidth=2;exitX=1;exitY=0.5;exitDx=0;exitDy=0;fillColor=#f0a30a;strokeColor=#BD7000;" edge="1" parent="1" source="u97FwL2xiANHR-dU6TU--11" target="u97FwL2xiANHR-dU6TU--17">
          <mxGeometry relative="1" as="geometry" />
        </mxCell>
        <mxCell id="u97FwL2xiANHR-dU6TU--45" style="edgeStyle=none;rounded=0;orthogonalLoop=1;jettySize=auto;html=1;entryX=0;entryY=0.5;entryDx=0;entryDy=0;strokeWidth=2;exitX=1;exitY=0.5;exitDx=0;exitDy=0;fillColor=#f0a30a;strokeColor=#BD7000;" edge="1" parent="1" source="u97FwL2xiANHR-dU6TU--11" target="u97FwL2xiANHR-dU6TU--14">
          <mxGeometry relative="1" as="geometry" />
        </mxCell>
      </root>
    </mxGraphModel>
  </diagram>
</mxfile>
